<svg width="16" height="16" viewBox="0 0 16 16" fill="none" xmlns="http://www.w3.org/2000/svg">
<path d="M3.5 12.5C2.61554 13.1139 1.53831 12.5744 1 11.642L7.2262 8L1 4.35795C1.53831 3.42557 2.61554 2.88605 3.5 3.49994L8.61002 7.19053L11.2713 5.63381C11.0978 5.29349 11 4.90817 11 4.5C11 3.11929 12.1193 2 13.5 2C14.8807 2 16 3.11929 16 4.5C16 5.88071 14.8807 7 13.5 7C12.8951 7 12.3404 6.78516 11.9079 6.42761L9.7308 7.99999L11.9079 9.57238C12.3404 9.21484 12.8951 9 13.5 9C14.8807 9 16 10.1193 16 11.5C16 12.8807 14.8807 14 13.5 14C12.1193 14 11 12.8807 11 11.5C11 11.0918 11.0978 10.7065 11.2713 10.3662L8.61 8.80946L3.5 12.5ZM13.5 10C12.6716 10 12 10.6716 12 11.5C12 12.3284 12.6716 13 13.5 13C14.3284 13 15 12.3284 15 11.5C15 10.6716 14.3284 10 13.5 10ZM13.5 3C12.6716 3 12 3.67157 12 4.5C12 5.32843 12.6716 6 13.5 6C14.3284 6 15 5.32843 15 4.5C15 3.67157 14.3284 3 13.5 3Z" fill="#efefef"/>
</svg>
